<svg viewBox="0 0 32 32" fill="currentColor" xmlns="http://www.w3.org/2000/svg">
<g clip-path="url(#clip0_3_43)">
<path d="M16 32C18.514 32 20.884 31.404 23 30.37C17.676 27.772 14 22.322 14 16C14 9.678 17.676 4.228 23 1.63C20.884 0.596 18.514 0 16 0C7.164 0 0 7.164 0 16C0 24.836 7.164 32 16 32Z" fill="black"/>
<path d="M28 6C28 8.21 26.21 10 24 10C26.21 10 28 11.79 28 14C28 11.79 29.79 10 32 10C29.79 10 28 8.21 28 6Z" fill="black"/>
<path d="M20 12C20 14.21 18.21 16 16 16C18.21 16 20 17.79 20 20C20 17.79 21.79 16 24 16C21.79 16 20 14.21 20 12Z" fill="black"/>
<path d="M26 26C26 23.79 27.79 22 30 22C27.79 22 26 20.21 26 18C26 20.21 24.21 22 22 22C24.21 22 26 23.79 26 26Z" fill="black"/>
</g>
<defs>
<clipPath id="clip0_3_43">
<rect width="32" height="32" fill="white"/>
</clipPath>
</defs>
</svg>
