<svg width="28" height="28" viewBox="0 0 28 28" fill="none" xmlns="http://www.w3.org/2000/svg">
<path d="M20.0868 2.9118L23.3169 6.15209L23.3045 6.16402L20.1143 6.16642L20.0845 2.91421L20.0868 2.9118Z" fill="#F1F1F1"/>
<path d="M11.4155 8.02627C11.4155 8.64107 11.072 8.93146 10.5449 8.9273C10.4728 8.9273 10.3922 8.9273 10.3428 8.91598V7.23259C10.3922 7.22127 10.4763 7.20935 10.6063 7.20935C11.106 7.20941 11.4191 7.49203 11.4155 8.02627Z" fill="#F1F1F1"/>
<path d="M8.81188 7.57966C8.81188 7.8432 8.62102 8.00005 8.3122 8.00005C8.22809 8.00005 8.16668 7.99589 8.11719 7.98457V7.22485C8.15952 7.21353 8.23941 7.20221 8.35749 7.20221C8.64788 7.20221 8.81188 7.34292 8.81188 7.57966Z" fill="#F1F1F1"/>
<path d="M6.87131 5.1748H16.8891V10.9589H6.87131H6.84687H4.72461V5.1748H6.84681H6.87131Z" fill="#F1F1F1"/>
<path d="M15.3771 13.9451C15.3842 14.5456 15.0002 15.7172 15.0002 15.7172C14.8678 15.5777 14.603 14.8311 14.603 14.1406C14.603 13.4501 14.8261 13.2617 15.0002 13.2617C15.1749 13.2617 15.3699 13.3452 15.3771 13.9451Z" fill="#DC1D00"/>
<path d="M19.5581 19.1819C19.5581 19.9749 18.1211 19.6517 17.2373 18.8103C17.2373 18.8103 19.5581 18.3893 19.5581 19.1819Z" fill="#DC1D00"/>
<path d="M11.2189 21.7936C10.5076 21.3679 12.7121 20.0566 13.1098 20.0149C13.1098 20.0149 11.9637 22.239 11.2189 21.7936Z" fill="#DC1D00"/>
<path d="M15.3353 17.022C15.7396 17.7751 16.5422 18.6612 16.5422 18.6612C16.5422 18.6612 16.235 18.6958 15.5214 18.8705C14.8075 19.0452 14.4492 19.2265 14.4492 19.2265C14.4492 19.2265 14.4492 19.2265 14.742 18.5706C15.0354 17.9146 15.3353 17.022 15.3353 17.022Z" fill="#DC1D00"/>
<path d="M23.3289 6.16404V25.0912H6.87109V10.9589H16.8889V5.1748H6.87109V2.90887H20.0845L20.0868 2.91183L20.0845 2.91418L20.1143 6.16639L23.3045 6.16398L23.317 6.15206L23.3289 6.16404Z" fill="#DC1D00"/>
<path d="M13.1099 20.0148C12.7122 20.0566 10.5077 21.3678 11.219 21.7936C11.9638 22.239 13.1099 20.0148 13.1099 20.0148ZM17.2374 18.8103C18.1211 19.6517 19.5583 19.9749 19.5583 19.1818C19.5583 18.3893 17.2374 18.8103 17.2374 18.8103ZM16.5421 18.6612C16.5421 18.6612 15.7396 17.7752 15.3352 17.022C15.3352 17.022 15.0353 17.9146 14.7419 18.5705C14.4491 19.2265 14.4491 19.2265 14.4491 19.2265C14.4491 19.2265 14.8075 19.0452 15.5213 18.8705C16.235 18.6958 16.5421 18.6612 16.5421 18.6612ZM15.0002 15.7173C15.0002 15.7173 15.3841 14.5456 15.3771 13.9451C15.3698 13.3453 15.1749 13.2618 15.0002 13.2618C14.8261 13.2618 14.603 13.4502 14.603 14.1406C14.603 14.8312 14.8677 15.5778 15.0002 15.7173ZM15.482 16.6243C15.8726 17.4686 16.9471 18.5563 16.9471 18.5563C16.9471 18.5563 17.2954 18.4657 18.7324 18.4311C20.1701 18.3965 20.2327 19.205 20.2392 19.2748C20.2464 19.3452 20.3025 19.9868 19.1582 20.0285C18.0145 20.0703 16.8279 18.8777 16.8279 18.8777C16.8279 18.8777 16.3401 18.9546 15.9358 19.0519C15.5315 19.1496 14.2334 19.5056 14.2334 19.5056C14.2334 19.5056 13.8493 20.2032 12.9984 21.3189C12.1469 22.4352 11.1934 22.3517 10.9215 21.982C10.6054 21.5527 10.8493 21.124 11.4492 20.5658C12.0491 20.0077 13.4331 19.5449 13.4331 19.5449C13.4331 19.5449 13.7122 19.0428 14.1212 18.0846C14.5302 17.1264 14.8398 16.1639 14.8398 16.1639C14.8398 16.1639 14.4349 15.2445 14.3561 14.4621C14.2679 13.5897 14.3657 13.0036 15.0353 12.9964C15.705 12.9892 15.9143 13.4919 15.9352 14.3637C15.956 15.2361 15.482 16.6243 15.482 16.6243Z" fill="white"/>
<path d="M13.9453 7.27344V6.78125H12.4141V9.35156H12.9609V8.3125H13.8906V7.875H12.9609V7.27344H13.9453Z" fill="#A51600"/>
<path d="M11.5989 7.03761C11.3508 6.85036 11.022 6.7627 10.5331 6.7627C10.2391 6.7627 9.95312 6.78178 9.73438 6.81634V9.34345C9.89844 9.36254 10.1055 9.38157 10.4073 9.38157C10.9111 9.38157 11.3299 9.27482 11.6006 9.04945C11.8486 8.83956 12.0312 8.49962 12.0312 8.00711C12.0312 7.55342 11.8666 7.23618 11.5989 7.03761ZM10.5143 8.92728C10.4422 8.92728 10.3906 8.92728 10.2812 8.91596V7.23257C10.3906 7.22125 10.4458 7.20933 10.5758 7.20933C11.0755 7.20933 11.3885 7.49195 11.3849 8.02625C11.3849 8.64105 11.0414 8.93144 10.5143 8.92728Z" fill="#A51600"/>
<path d="M9.11356 6.96904C8.94184 6.83128 8.6619 6.76276 8.30288 6.76276C7.94806 6.76276 7.65625 6.786 7.49219 6.8164V9.35155H8.09375V8.43472C8.14844 8.44248 8.22768 8.44664 8.30408 8.44664C8.64752 8.44664 8.94731 8.36253 9.14594 8.17533C9.29857 8.03047 9.38552 7.81637 9.38552 7.56475C9.38552 7.31253 9.27752 7.09903 9.11356 6.96904ZM8.30041 8.00006C8.21636 8.00006 8.14844 7.9959 8.09375 7.98458V7.22487C8.14844 7.21355 8.22768 7.20222 8.3457 7.20222C8.63614 7.20222 8.80009 7.34294 8.80009 7.57968C8.80009 7.84322 8.60929 8.00006 8.30041 8.00006Z" fill="#A51600"/>
</svg>
