<svg viewBox="0 0 25 25" fill="currentColor" xmlns="http://www.w3.org/2000/svg">
<g clip-path="url(#clip0_5_318)">
<path d="M24.1071 3.90625H19.51L17.6127 1.13525C17.0815 0.431006 16.2612 0 15.3237 0H9.67634C8.73884 0 7.8683 0.431006 7.38839 1.13525L5.48995 3.90625H0.892857C0.3976 3.90625 0 4.25439 0 4.6875V5.46875C0 5.90332 0.3976 6.25 0.892857 6.25H1.78571V21.875C1.78571 23.6011 3.38449 25 5.35714 25H19.6429C21.6155 25 23.2143 23.6011 23.2143 21.875V6.25H24.1071C24.6038 6.25 25 5.90332 25 5.46875V4.6875C25 4.25439 24.6038 3.90625 24.1071 3.90625ZM9.59263 2.48438C9.64844 2.39893 9.76004 2.34375 9.87723 2.34375H15.1228C15.2414 2.34375 15.353 2.39868 15.4088 2.48413L16.3839 3.90625H8.61607L9.59263 2.48438ZM19.6429 22.6562H5.35714C4.86401 22.6562 4.46429 22.3065 4.46429 21.875V6.25H20.5357V21.875C20.5357 22.3047 20.1339 22.6562 19.6429 22.6562ZM12.5 20.3125C12.9935 20.3125 13.3929 19.9631 13.3929 19.5312V9.375C13.3929 8.94316 12.9935 8.59375 12.5 8.59375C12.0065 8.59375 11.6071 8.94531 11.6071 9.375V19.5312C11.6071 19.9609 12.0089 20.3125 12.5 20.3125ZM8.03571 20.3125C8.52679 20.3125 8.92857 19.9609 8.92857 19.5312V9.375C8.92857 8.94316 8.52924 8.59375 8.03571 8.59375C7.54219 8.59375 7.14286 8.94531 7.14286 9.375V19.5312C7.14286 19.9609 7.54464 20.3125 8.03571 20.3125ZM16.9643 20.3125C17.4578 20.3125 17.8571 19.9631 17.8571 19.5312V9.375C17.8571 8.94316 17.4578 8.59375 16.9643 8.59375C16.4708 8.59375 16.0714 8.94531 16.0714 9.375V19.5312C16.0714 19.9609 16.4732 20.3125 16.9643 20.3125Z"  />
</g>
<defs>
<clipPath id="clip0_5_318">
<rect width="25" height="25" fill="white"/>
</clipPath>
</defs>
</svg>
