<svg viewBox="0 0 32 32" fill="currentColor" xmlns="http://www.w3.org/2000/svg">
<path d="M17 24C21.9706 24 26 19.9706 26 15C26 10.0294 21.9706 6 17 6C12.0294 6 8 10.0294 8 15C8 19.9706 12.0294 24 17 24Z" fill="#currentColor"/>
<path d="M18 0H16V4H18V0Z" fill="currentColor"/>
<path d="M18 26H16V30H18V26Z" fill="currentColor"/>
<path d="M32 14H28V16H32V14Z" fill="currentColor"/>
<path d="M6 14H2V16H6V14Z" fill="currentColor"/>
<path d="M25.4845 22.0712L24.0703 23.4854L26.8987 26.3138L28.3129 24.8996L25.4845 22.0712Z" fill="currentColor"/>
<path d="M7.10097 3.68639L5.68677 5.10059L8.51517 7.92899L9.92937 6.51479L7.10097 3.68639Z" fill="currentColor"/>
<path d="M8.5145 22.0705L5.6861 24.8989L7.1003 26.3131L9.9287 23.4847L8.5145 22.0705Z" fill="currentColor"/>
<path d="M26.8989 3.68649L24.0705 6.51489L25.4847 7.92909L28.3131 5.10069L26.8989 3.68649Z" fill="currentColor"/>
</svg>
